<svg width="251" height="38" viewBox="0 0 251 38" fill="none" xmlns="http://www.w3.org/2000/svg">
<g filter="url(#filter0_d_0_143)">
<rect x="2" y="1" width="247" height="34" rx="6" fill="white"/>
<path d="M96.1024 14.7072L102.5 17.9056L108.898 14.7072C108.874 14.2996 108.695 13.9164 108.398 13.6362C108.101 13.356 107.708 13.1999 107.3 13.2H97.7C97.2917 13.1999 96.8988 13.356 96.6017 13.6362C96.3047 13.9164 96.1261 14.2996 96.1024 14.7072Z" fill="#1E1F26"/>
<path d="M108.9 16.4944L102.5 19.6944L96.1 16.4944V21.2C96.1 21.6244 96.2686 22.0313 96.5686 22.3314C96.8687 22.6314 97.2757 22.8 97.7 22.8H107.3C107.724 22.8 108.131 22.6314 108.431 22.3314C108.731 22.0313 108.9 21.6244 108.9 21.2V16.4944Z" fill="#1E1F26"/>
<path d="M119.619 23H126.062V21.6776H121.155V18.5604H125.669V17.2429H121.155V14.1406H126.002V12.8182H119.619V23ZM127.935 23H129.421V18.2919C129.421 17.2628 130.142 16.5469 130.987 16.5469C131.813 16.5469 132.384 17.0938 132.384 17.924V23H133.866V18.1328C133.866 17.2131 134.428 16.5469 135.397 16.5469C136.183 16.5469 136.829 16.9844 136.829 18.0185V23H138.316V17.8793C138.316 16.1342 137.341 15.2642 135.959 15.2642C134.86 15.2642 134.035 15.7912 133.667 16.6065H133.588C133.254 15.7713 132.553 15.2642 131.534 15.2642C130.525 15.2642 129.774 15.7663 129.456 16.6065H129.362V15.3636H127.935V23ZM142.53 23.169C143.793 23.169 144.504 22.5277 144.787 21.956H144.847V23H146.299V17.929C146.299 15.7067 144.549 15.2642 143.336 15.2642C141.953 15.2642 140.681 15.821 140.184 17.2131L141.581 17.5312C141.799 16.9893 142.356 16.4673 143.355 16.4673C144.315 16.4673 144.807 16.9695 144.807 17.8345V17.8693C144.807 18.4112 144.25 18.4013 142.878 18.5604C141.431 18.7294 139.95 19.1072 139.95 20.8423C139.95 22.3438 141.078 23.169 142.53 23.169ZM142.853 21.9759C142.013 21.9759 141.407 21.598 141.407 20.8622C141.407 20.0668 142.113 19.7834 142.973 19.669C143.455 19.6044 144.598 19.4751 144.812 19.2614V20.2457C144.812 21.1506 144.091 21.9759 142.853 21.9759ZM148.279 23H149.765V15.3636H148.279V23ZM149.029 14.1854C149.541 14.1854 149.969 13.7876 149.969 13.3004C149.969 12.8132 149.541 12.4105 149.029 12.4105C148.512 12.4105 148.09 12.8132 148.09 13.3004C148.09 13.7876 148.512 14.1854 149.029 14.1854ZM153.251 12.8182H151.765V23H153.251V12.8182Z" fill="#374151"/>
<rect x="2.5" y="1.5" width="246" height="33" rx="5.5" stroke="#D1D5DB"/>
</g>
<defs>
<filter id="filter0_d_0_143" x="0" y="0" width="251" height="38" filterUnits="userSpaceOnUse" color-interpolation-filters="sRGB">
<feFlood flood-opacity="0" result="BackgroundImageFix"/>
<feColorMatrix in="SourceAlpha" type="matrix" values="0 0 0 0 0 0 0 0 0 0 0 0 0 0 0 0 0 0 127 0" result="hardAlpha"/>
<feOffset dy="1"/>
<feGaussianBlur stdDeviation="1"/>
<feColorMatrix type="matrix" values="0 0 0 0 0 0 0 0 0 0 0 0 0 0 0 0 0 0 0.05 0"/>
<feBlend mode="normal" in2="BackgroundImageFix" result="effect1_dropShadow_0_143"/>
<feBlend mode="normal" in="SourceGraphic" in2="effect1_dropShadow_0_143" result="shape"/>
</filter>
</defs>
</svg>
